<svg id="Layer_1" data-name="Layer 1" xmlns="http://www.w3.org/2000/svg" viewBox="0 0 960 400.85"><defs><style>.cls-1{fill:#55b748;}.cls-1,.cls-2,.cls-3,.cls-4,.cls-5{fill-rule:evenodd;}.cls-2{fill:#010101;}.cls-3{fill:#5d5e5c;}.cls-4{fill:#c1282d;}.cls-5{fill:#fff;}.cls-6{fill:#002a46;}</style></defs><path class="cls-1" d="M525.72,564.05q125.38.11,229.49,4.8t173.06,12.62q-24.62-15.65-135.19-25.66T525.72,545.48q-156.78.3-267.35,10.33T123.18,581.47q69-8,173.05-12.62t229.49-4.8" transform="translate(-32.23 -311.5)"/><path class="cls-2" d="M462.51,496.35V538.9c1.33,0,2.68,0,4.07.11a3.08,3.08,0,0,0-.73-.11l-3.34-42.55" transform="translate(-32.23 -311.5)"/><path class="cls-2" d="M570.48,395.27l-13.36,18.15-13.45-18.15h26.81m5.94-3h-38.7l19.4,26.29,19.3-26.29" transform="translate(-32.23 -311.5)"/><path class="cls-2" d="M494.22,475v64.26h-5l-2.91-13v12.94H486l11.26.2V478H616.38v64.26h-.21c1.11,0,2.19,0,3.23.1V475H494.22" transform="translate(-32.23 -311.5)"/><path class="cls-2" d="M505.8,486.44v52.88c1,.07,2,.11,3,.11v-50h40.68v50.7c1,.07,2,.1,3,.1V486.44H505.8" transform="translate(-32.23 -311.5)"/><path class="cls-2" d="M561.19,486.44v54H561c1,0,2.12,0,3.24.11V489.46H604.9v52.27c1,.06,2,.1,3,.1V486.44H561.19" transform="translate(-32.23 -311.5)"/><path class="cls-2" d="M475.13,539c1,0,2.09,0,3.13.11l-3.13-25.88V539" transform="translate(-32.23 -311.5)"/><path class="cls-2" d="M539.71,413.42l8.76,11.89-8.76,11.78V413.42m-3-9.19v42l15.45-21-15.45-21.08" transform="translate(-32.23 -311.5)"/><path class="cls-2" d="M543.67,455.25l13.45-18.16,13.36,18.16H543.67m-5.95,3h38.7L557.12,432l-19.4,26.29" transform="translate(-32.23 -311.5)"/><path class="cls-2" d="M585.39,392.24V466.3H528.65v-82h56.74v7.92m3-10.95h-62.8v88h62.8v-88" transform="translate(-32.23 -311.5)"/><path class="cls-2" d="M574.54,437.09l-8.76-11.78,8.76-11.89v23.67m2.92,9.19v-42L562,425.31l15.43,21" transform="translate(-32.23 -311.5)"/><path class="cls-3" d="M383.65,436.37a31.54,31.54,0,0,1,.11,9.91,118.78,118.78,0,0,0,16.37-.32,30.43,30.43,0,0,0-3.33,10c3.61,1.94,5.31,5.15,5.11,9.6a12.34,12.34,0,0,1-4.39,3.13,2.46,2.46,0,0,0-.52.83h33.38L457.3,458.8l25.35-71.56,48.81-44.55L486.6,350.2l-18.87,3.13-23.16,3.87-44,29.82-25,46.85c3.48-.43,6.2.41,8.14,2.5" transform="translate(-32.23 -311.5)"/><path class="cls-3" d="M363.21,465.36q-.73-6.47-4.7-4.89l-21.28,9.07h25.14a13.27,13.27,0,0,0,.84-4.18" transform="translate(-32.23 -311.5)"/><path class="cls-3" d="M387.09,467.77a14.3,14.3,0,0,1-.1,1.77h1.88a7,7,0,0,0-1.78-1.77" transform="translate(-32.23 -311.5)"/><path class="cls-3" d="M373.12,468.18a5.1,5.1,0,0,1,0,1.46h4.69c.49-1.6-1.08-2.08-4.69-1.46" transform="translate(-32.23 -311.5)"/><path class="cls-4" d="M564.11,489.46v51.12q19.93.52,40.69,1.15V489.46H564.11" transform="translate(-32.23 -311.5)"/><path class="cls-4" d="M508.83,489.46v50q19.29.32,40.79.73v-50.7H508.83" transform="translate(-32.23 -311.5)"/><path class="cls-5" d="M577.46,446.17,562,425.2l15.43-21.06v42m-39.74,12L557,431.88l19.4,26.29h-38.7m-1.14-54,15.54,21.06-15.54,21.08V404.14m39.84-12L557,418.42l-19.3-26.28h38.7m-39.84-7.93h-7.93v82H585.5v-82H536.58" transform="translate(-32.23 -311.5)"/><path class="cls-2" d="M835.53,524.82H795.89v-6.57h39.64v6.57m0,14.19H795.89v-6.57h39.64V539m-47.25-14.19H748.64v-6.57h39.64v6.57m0,14.19H748.64v-6.57h39.64V539M741,524.82H697.94v-6.57H741v6.57M741,539H697.94v-6.57H741V539m-66.87,5.84a.28.28,0,0,0-.21-.1l-18-.83h0q-18.27-.95-36.51-1.67c-1,0-2.12,0-3.23-.11q-4.18-.1-8.35-.31c-1,0-2,0-3-.1q-20.76-.63-40.69-1.15c-1-.08-2.11-.11-3.23-.11l-8.35-.21c-1,0-2,0-3-.1q-21.39-.42-40.68-.73c-1.05-.07-2.06-.11-3-.11q-4.38,0-8.55-.1-5.75-.11-11.26-.1c-2.58-.08-5.12-.11-7.62-.11h-3.24q-4.38-.1-8.55-.11h-4.07c-2.92-.06-5.73-.1-8.45-.1V480.7l18.46-7.41,26.5-75.1L559.42,343,592.7,374.2l36.61,78.86V468.6L692,491.34v54.45h-.1q-8.88-.52-17.74-.94M396.8,456a29.4,29.4,0,0,1,3.33-10,118.78,118.78,0,0,1-16.37.32,34.26,34.26,0,0,0,0-9.91q-3-3.14-8.25-2.5l25-46.85,44.13-29.82,23.05-3.87V332.26h-5.22l14.61-12.72L491,332.26H486.6V350.2l44.86-7.51-48.81,44.55L457.3,458.8l-26.92,10.74H397a4.47,4.47,0,0,1,.52-.94,11.13,11.13,0,0,0,4.39-3c.2-4.45-1.5-7.66-5.11-9.6M387,469.54a7.48,7.48,0,0,0,0-1.77,5.31,5.31,0,0,1,1.77,1.77H387m-13.87,0a10.24,10.24,0,0,0,.1-1.46c3.62-.63,5.19-.14,4.69,1.46h-4.79m-10.75,0H337.23l21.18-9.07q4.06-1.58,4.69,4.89a15.26,15.26,0,0,1-.73,4.18M308,376.91c-2.3.14-4.59.24-6.89.31-.21,2.3-.31,4.59-.31,6.89a29.52,29.52,0,0,0-5.95,1.45q4.59,11.28,2.61,12.32c-1.26.62-5.63,1.84-13.15,3.65q-8.13,3-9.49,3.44t-9.07-1a28.47,28.47,0,0,0-14-2.82q.51,12.61-11.79,11.37c-4.45.14-7-.62-7.61-2.3s-2.54-.35-5.74,4a47.85,47.85,0,0,0-4.06,16.49q-.73,9.28-13.36,5.42a12.11,12.11,0,0,1-.31,2.82q-8.44-3.24-14.5-2.4T189,449.2q-12.51-1.15-11.89,11.16-8.76-6-23.57-9.6t-20.45,7.51a10.41,10.41,0,0,0-1.25-4.9c-2-2.5-4.17-3.9-6.68-4.17,3.42-2.09,4.83-5.53,4.28-10.33a6,6,0,0,0-4.07-4.38,9.45,9.45,0,0,0,2.5-2.71,14.76,14.76,0,0,0,2.2-5.12l1.25.43a23.15,23.15,0,0,0,9.18,2.39,9.51,9.51,0,0,0,4.59-.93,11.32,11.32,0,0,0,2.6-1.89,9.89,9.89,0,0,0,5.33,7.41,8.78,8.78,0,0,0,3.23.73c1.67.07,3.68-.62,6.05-2.08q7.3-3.56,3.13-13.88a7.17,7.17,0,0,0,4-2.81,10.77,10.77,0,0,0,.52-9.71,8.61,8.61,0,0,0-.52-1.35,8.72,8.72,0,0,0,4.37-3.65c1.67-2.85,2.06-5.5,1.15-7.93-.14-.34-.28-.66-.42-.94h.94a9.51,9.51,0,0,0,3.13-.31q6.59-2.82,9.5-7.73a18.32,18.32,0,0,1,1.67-2,8.08,8.08,0,0,1,5.94-2.09,39.7,39.7,0,0,0,6.36-.94,6,6,0,0,0,4.59-6.05v-.83a8.23,8.23,0,0,1,1.36-.11,31.86,31.86,0,0,1,3.75.21,43.8,43.8,0,0,0,4.39.21,15.71,15.71,0,0,0,7.71-1.77,13.1,13.1,0,0,0,4.39-4.39,15,15,0,0,1,1.15-1.35,23.72,23.72,0,0,1,3.44-.73c.55-.07,1-.14,1.45-.21h.53a35.21,35.21,0,0,1,6.46-.73,6.05,6.05,0,0,1,3.55.84,2.51,2.51,0,0,1,.94,1.46q.83,5.63,10.12,6.78a2.24,2.24,0,0,0,.63.1,22.09,22.09,0,0,0,7.5-1.77,8.93,8.93,0,0,1,3-.94h.31a7.5,7.5,0,0,1,2.72.52q1.45,4,4,4.8a13.64,13.64,0,0,0,6.05,1.35,14.35,14.35,0,0,0,7-1.77,15.44,15.44,0,0,0,2.61-2.09,9.42,9.42,0,0,0,1.35.11q7.62-1.24,11-5.53a21.92,21.92,0,0,1,2.72-2.19,11.14,11.14,0,0,1,1.88,2.82,34.63,34.63,0,0,0,2.6,4,2.79,2.79,0,0,0,.53.73,18.52,18.52,0,0,0-1.67,4.07m527.5,127.26v6.46H795.89v-6.46h-7.61v6.46H748.64v-6.46H741v6.46H697.94V495.2l15.55,5.74,2.6-7.2-80.84-29.31v-6.37l16.8,6.47,2.71-7.1-20.55-7.92L598,371.28l-.32-.73-38.28-35.68-65.51,59.88-26.18,74-28.27,11.36-2.71-6.67,25.34-10.12,25.66-72.61,62.7-57.16-57.9,9.6v-4.9h13.87l-29.2-26.71-30.67,26.71h15.23v10l-19.4,3.24L396.07,383l-26.19,48.71a4.72,4.72,0,0,1-.83-.52c-1.26-2.57-2.33-4.83-3.24-6.78a31.84,31.84,0,0,0-8.24-2.19c-3.54-.49-4.87-2.61-4-6.36a11.63,11.63,0,0,0,5.95-7.09,39.92,39.92,0,0,1-3.24-9.6q2.4-4.5-1.25-7.09a37.92,37.92,0,0,0-10.54,0q-11.05.09-15.54-8.46a4.89,4.89,0,0,0-2.71-5.21,29.28,29.28,0,0,1-7.2-1.57,6.16,6.16,0,0,1-.73-2.71c-1.39-1.67-2.88-3.54-4.48-5.63a16.73,16.73,0,0,0-8.14-9.08q-5,.11-8.87,4.8t-10,1.36q-2.4,7.18-10.22,4.59a5.49,5.49,0,0,1-1.05-3.34,14.27,14.27,0,0,0-9-2.61,100.78,100.78,0,0,1-10.54,2.61q-4.17-.21-4.48-2.19c-.14-1.25-1.07-2.81-2.82-4.7a19.84,19.84,0,0,0-15.33-1.35,22.44,22.44,0,0,0-6.78,1.46c-2.16,2-4.1,4-5.84,5.95a29,29,0,0,1-12.41.52c-4.88-.7-7.44,1.67-7.72,7.09A27.73,27.73,0,0,0,186,377.74a31.21,31.21,0,0,1-9,8.56,29.9,29.9,0,0,1-7.3-.32c-2.72-.48-4.67.66-5.85,3.45-.41,2.57.6,4,3,4.28s3,1.87,1.77,4.58a25.78,25.78,0,0,0-6.26,4.28,5,5,0,0,0,1.78,5.53c1.11,4,.52,5.81-1.78,5.32s-3.68.52-4.38,3.23a11.51,11.51,0,0,0,2.51,5.64c1.46,1.73.94,3.54-1.57,5.41q-6.68,2-6.36-7.08c-2.71-.08-5.46,0-8.24.1-1.12,2.71-3.17,3.55-6.16,2.5s-5.45-1.91-7.4-2.6q-7.62-.53-7.82,7.93a35.63,35.63,0,0,1-10.23,3.12c-2.09,3.2-1.35,5.42,2.19,6.68a25.68,25.68,0,0,0,8.66,1.77Q123.29,445,117,447t-1.26,5.74a25.12,25.12,0,0,0,8.87,2.51q3.77.11,1.67,7.09-1.56,4.08-1.35,5.11a43.35,43.35,0,0,0,1.87,4.91q3.13,3.64-1.35,5.21-9.39,1.15-10.75,10.33a44.12,44.12,0,0,0-12.93.21,12.38,12.38,0,0,0-2.92,6.15,14.29,14.29,0,0,0-4.59,5,11.4,11.4,0,0,0,5.31,7.09,5.87,5.87,0,0,0,5.74.31,6.9,6.9,0,0,1,3.13-1.77c1.47,1.46,3.1,3.23,4.91,5.32q10.53,4.06,10.43-6.78,9.39,1.14,13.77-5.74a11.86,11.86,0,0,1,3-4,12.12,12.12,0,0,1,6.78,2.71,57.6,57.6,0,0,1,4.38-8.45,5.47,5.47,0,0,1,5.74-.52c2.16-1,4.14-2,5.95-3a34.77,34.77,0,0,1,6,1.56c3.47.42,5.63,2.12,6.46,5.11q-7.31-1.26-9.59,2.92c1.32.63,1.38,1.95.2,4-1.88.48-4,1-6.36,1.66-.76,1.33-1.67,2.71-2.71,4.17a40.92,40.92,0,0,0-5.74,2.51q-3,7.62,5.84,7.51a12.88,12.88,0,0,1,10.43-3.44,32.37,32.37,0,0,0,5.43,4.17q5.83,2.4,6.78-1.88-.42-3.33,3.75-4.79,2.61-.53,3.76,2.29a4.33,4.33,0,0,0,.94,4.28,11.32,11.32,0,0,0,7-2.09,9,9,0,0,0,5.12,3.55q3.85-2.61,2.92-7.72a52.54,52.54,0,0,1,8.13,0,44,44,0,0,0,1.15,5.63c1.12,2.09,2.36,2,3.76-.42,3,.14,4.31.91,3.75,2.3a6.91,6.91,0,0,0,.52,5q2.93,4,5.85.73a29.32,29.32,0,0,1,4.37-4.49,26.52,26.52,0,0,1,12.73,4.69q8.25,1.68,11.16,7.72v26.71q6.16-.52,12.62-1.15v-26.6c.63-3.41,2.2-4.76,4.7-4.07s3.44-1.91,2.82-7.61a6.37,6.37,0,0,1,5.84.52v36.71q64.37-5,144.68-7.19,48.19-1.25,100-1.25,93,0,172.22,4v-2.82H741v5.22c2.57.14,5.11.32,7.61.52v-5.74h39.64v8.77c2.58.2,5.11.45,7.61.73v-9.5h39.64v13.67q3.87.42,7.62.94V504.17h-7.62" transform="translate(-32.23 -311.5)"/><path class="cls-1" d="M284.34,401.53c7.52-1.81,11.89-3.06,13.15-3.76s.45-4.69-2.61-12.21a22.79,22.79,0,0,1,5.95-1.45c0-2.3.06-4.59.2-6.89q3.56-.11,7-.31a16.29,16.29,0,0,1,1.67-4.07c-.21-.28-.39-.52-.53-.73a22.46,22.46,0,0,1-2.6-4,16.78,16.78,0,0,0-1.88-2.82,21.92,21.92,0,0,0-2.72,2.19q-3.33,4.17-11,5.42a4.36,4.36,0,0,1-1.35,0,15.44,15.44,0,0,1-2.61,2.09A14.93,14.93,0,0,1,280,376.8a13.43,13.43,0,0,1-6-1.35q-2.5-.84-4-4.9a9.18,9.18,0,0,0-2.72-.42h-.41a8.91,8.91,0,0,0-2.93.94,20.72,20.72,0,0,1-7.5,1.67,1.12,1.12,0,0,1-.63,0q-9.28-1.15-10.12-6.78a2.51,2.51,0,0,0-.94-1.46,5.16,5.16,0,0,0-3.55-.84,40.34,40.34,0,0,0-6.46.63l-.53.1c-.41.07-.9.14-1.45.21a13.27,13.27,0,0,0-3.44.73,15,15,0,0,0-1.15,1.35,14.6,14.6,0,0,1-4.39,4.39,16.31,16.31,0,0,1-7.82,1.77l-4.38-.21a29.32,29.32,0,0,0-3.65-.21,8.23,8.23,0,0,0-1.36.11v.83a6,6,0,0,1-4.59,6.05,39.7,39.7,0,0,1-6.36.94,8.31,8.31,0,0,0-5.94,2,17.78,17.78,0,0,0-1.67,2,18.83,18.83,0,0,1-9.5,7.72,8.22,8.22,0,0,1-3.13.41h-.94c.14.28.28.6.42.94.83,2.43.45,5.08-1.15,7.93A8.72,8.72,0,0,1,169.4,405a8.61,8.61,0,0,1,.52,1.35,10.54,10.54,0,0,1-.52,9.6,7.07,7.07,0,0,1-4,2.92q4.17,10.32-3.24,13.88-3.44,2.19-5.94,2a7.17,7.17,0,0,1-3.23-.63,9.89,9.89,0,0,1-5.33-7.41,11.32,11.32,0,0,1-2.6,1.89,12.18,12.18,0,0,1-4.59.93,25.55,25.55,0,0,1-9.18-2.39,9,9,0,0,1-1.25-.53,14.7,14.7,0,0,1-2.2,5.22,11.72,11.72,0,0,1-2.5,2.71,5.77,5.77,0,0,1,4,4.38q.84,7.2-4.17,10.33c2.51.27,4.69,1.67,6.58,4.17a9.72,9.72,0,0,1,1.35,4.8q5.74-11.16,20.45-7.52t23.57,9.71Q176.49,448,189,449.2q-.62-11.9,5.43-12.73t14.5,2.4a9.09,9.09,0,0,0,.2-2.82q12.74,3.87,13.47-5.42a47.85,47.85,0,0,1,4.06-16.49q4.8-6.47,5.74-4t7.5,2.3c8.29.83,12.24-3,11.9-11.37a29.35,29.35,0,0,1,14,2.71c5.14,1,8.16,1.43,9.07,1.15s4.07-1.43,9.49-3.44" transform="translate(-32.23 -311.5)"/><polyline class="cls-5" points="454.37 20.76 435.5 20.76 435.5 41.83 454.37 38.7 454.37 20.76"/><polyline class="cls-3" points="458.76 20.76 444.89 8.04 430.28 20.76 458.76 20.76"/><polyline class="cls-4" points="538.25 83.77 511.44 83.77 524.78 101.92 538.25 83.77"/><polyline class="cls-4" points="511.44 143.64 538.25 143.64 524.78 125.49 511.44 143.64"/><polyline class="cls-4" points="542.31 125.59 542.31 101.92 533.55 113.81 542.31 125.59"/><polyline class="cls-4" points="507.47 101.92 507.47 125.59 516.23 113.81 507.47 101.92"/><path class="cls-4" d="M525.62,381.19h62.8v88h-62.8v-88M462.51,538.8V496.24l3.34,42.66h9.28V513.14L478.26,539c2.51,0,5.08,0,7.73.11.06-.08.17-.08.31,0v-13l2.91,13c1.61,0,3.27,0,5,.1V474.86H619.4v67.39q18.26.72,36.51,1.56,9.08.51,18,.94h.21l17.74,1V491.34L629.2,468.6V453.06L592.7,374.2,559.42,343,499,398.19l-26.6,75.1-18.36,7.31v58.2h8.45" transform="translate(-32.23 -311.5)"/><path class="cls-5" d="M616.38,478H497.25v61.33q4.17,0,8.55.11V486.54h46.73v53.82l8.35.22h.21v-54h46.73v55.39c2.78.14,5.56.24,8.35.32h.21V478" transform="translate(-32.23 -311.5)"/><path class="cls-6" d="M32.23,651.38h4.84v39.36H32.23v5.78H48.77v-5.78H43.66V673.39H61.18v-5.64H43.66V651.38H61.85V660h6.89V645.56H32.23v5.82Zm65.39,10.11c-1,0-2.07-.06-3.1-.06H91.23a7.7,7.7,0,0,0-2.44.38,7.58,7.58,0,0,0-2.05,1.08,9.47,9.47,0,0,0-1.68,1.61,14.65,14.65,0,0,0-1.36,2v-4.8H72.57v5.78h4.84l0,23.26H72.57v5.78H89.85v-5.78H83.93V673.93a10,10,0,0,1,1.1-3.14,8.1,8.1,0,0,1,1.76-2.19A7.06,7.06,0,0,1,89,667.33a6.63,6.63,0,0,1,2.27-.42v2.15h6.39v-7.57Zm38.22,18.43c0-.83,0-1.68-.05-2.56s-.11-1.73-.22-2.59a26.24,26.24,0,0,0-1.19-5.14,13.88,13.88,0,0,0-2.53-4.49,12,12,0,0,0-4.3-3.16,16,16,0,0,0-6.57-1.19,16.59,16.59,0,0,0-7.13,1.44,14.81,14.81,0,0,0-5.12,3.92,16.7,16.7,0,0,0-3.11,5.78,23.21,23.21,0,0,0-1.05,7.05A24,24,0,0,0,105.8,687a16.34,16.34,0,0,0,3.4,5.79,13.93,13.93,0,0,0,5.17,3.49,17.72,17.72,0,0,0,6.54,1.18,22.61,22.61,0,0,0,7.2-1.15,27.45,27.45,0,0,0,6.89-3.49l-2.52-4.27a25.08,25.08,0,0,1-5.4,2.37,18.79,18.79,0,0,1-5.29.76,11.58,11.58,0,0,1-6.21-1.7,9.7,9.7,0,0,1-4-5.06,13.39,13.39,0,0,1-.62-2.34,15.06,15.06,0,0,1-.22-2.7Zm-11.4-13.21a6.56,6.56,0,0,1,2.59,1.88,8,8,0,0,1,1.5,2.86,16.89,16.89,0,0,1,.62,3.59H111.1a16.77,16.77,0,0,1,1-3.76,8.69,8.69,0,0,1,1.83-2.84,7.74,7.74,0,0,1,2.78-1.79,10.75,10.75,0,0,1,3.81-.62,9.91,9.91,0,0,1,3.9.68ZM164.88,650h4.74v13.34a12.11,12.11,0,0,0-4-1.93,17.85,17.85,0,0,0-4.6-.55,18.06,18.06,0,0,0-7,1.29,15.29,15.29,0,0,0-5.35,3.63,16.16,16.16,0,0,0-3.43,5.65,21.4,21.4,0,0,0-1.21,7.34,22.92,22.92,0,0,0,1.26,7.89,16.92,16.92,0,0,0,3.5,5.81,14.78,14.78,0,0,0,5.28,3.6,17.38,17.38,0,0,0,6.57,1.23,12.58,12.58,0,0,0,5-1,12.2,12.2,0,0,0,3.9-2.67v2.85H181v-5.78h-5.11V644.22h-11V650Zm-7.8,41a9.32,9.32,0,0,1-3.46-2.5,12,12,0,0,1-2.25-4.12,18.15,18.15,0,0,1-.81-5.68,15.18,15.18,0,0,1,.84-5.25,11.31,11.31,0,0,1,2.31-3.86,9.69,9.69,0,0,1,3.41-2.41,10.59,10.59,0,0,1,4.17-.82,15.74,15.74,0,0,1,4.47.64,10.48,10.48,0,0,1,3.86,2v19.5a10.83,10.83,0,0,1-3.46,2.47,11.66,11.66,0,0,1-4.67.82,11.4,11.4,0,0,1-4.41-.84Zm72.51-31.6h8.24v-5.78h-2.52a17,17,0,0,0-2.4-3.58,14.5,14.5,0,0,0-3.3-2.79,15.69,15.69,0,0,0-4.17-1.8,18.55,18.55,0,0,0-5-.64,23,23,0,0,0-7.35,1.09,16.17,16.17,0,0,0-5.43,3,12.74,12.74,0,0,0-3.36,4.47,13.32,13.32,0,0,0-1.14,5.48,15.54,15.54,0,0,0,.77,5.1,11.82,11.82,0,0,0,2.2,3.84,13.2,13.2,0,0,0,3.43,2.79,21.79,21.79,0,0,0,4.42,1.89l7.36,2.08c1,.32,2,.69,3.08,1.11a12.79,12.79,0,0,1,2.94,1.65,8.27,8.27,0,0,1,2.2,2.44,6.55,6.55,0,0,1,.86,3.47,7.7,7.7,0,0,1-.69,3.32,6.89,6.89,0,0,1-2,2.48,9,9,0,0,1-3.13,1.57,14.54,14.54,0,0,1-4.12.53,16.56,16.56,0,0,1-4.3-.52,10,10,0,0,1-3.36-1.54,7.16,7.16,0,0,1-2.2-2.57,12.54,12.54,0,0,1-.79-5.28h-8.47V687h2.55a18.89,18.89,0,0,0,1.78,3.93,12.27,12.27,0,0,0,3.05,3.41,14.46,14.46,0,0,0,4.69,2.39,22.38,22.38,0,0,0,6.72.89,21.17,21.17,0,0,0,7-1.12,17.2,17.2,0,0,0,5.53-3.11,14.13,14.13,0,0,0,3.61-4.68,13.2,13.2,0,0,0,1.3-5.85,14.94,14.94,0,0,0-.82-5.14,11.66,11.66,0,0,0-2.41-3.91,14.66,14.66,0,0,0-3.91-3,33.43,33.43,0,0,0-5.4-2.22l-6.79-2.21c-.9-.32-1.83-.63-2.81-1a10.31,10.31,0,0,1-2.67-1.29,6.67,6.67,0,0,1-2-2.18,7.09,7.09,0,0,1-.79-3.58,6.47,6.47,0,0,1,.64-2.83,6.63,6.63,0,0,1,1.9-2.35,9.53,9.53,0,0,1,3.17-1.6,15.39,15.39,0,0,1,4.48-.59,11.73,11.73,0,0,1,3.09.42,11.1,11.1,0,0,1,2.84,1.21,8.57,8.57,0,0,1,2.37,2.27,7.54,7.54,0,0,1,1.07,4.44ZM274.17,671v-5.78h-3.53a14.23,14.23,0,0,0-5.16-3.46,17.11,17.11,0,0,0-6.24-1.14,15.74,15.74,0,0,0-6.55,1.38,16.61,16.61,0,0,0-5.35,3.81,17.84,17.84,0,0,0-3.59,5.83,20.36,20.36,0,0,0-1.31,7.43,21.41,21.41,0,0,0,1.24,7.43,17.43,17.43,0,0,0,3.48,5.85,15.68,15.68,0,0,0,5.31,3.82,17.22,17.22,0,0,0,11.43.7A15.43,15.43,0,0,0,268,695a15.81,15.81,0,0,0,3.35-2.93,16.88,16.88,0,0,0,2.48-3.86l-5.17-2.56a10.71,10.71,0,0,1-3.8,4.59,10,10,0,0,1-5.62,1.56,9.42,9.42,0,0,1-4.08-.89,9.9,9.9,0,0,1-3.34-2.55,11.93,11.93,0,0,1-2.27-4,15.9,15.9,0,0,1-.83-5.28,16.43,16.43,0,0,1,.83-5.36,12.34,12.34,0,0,1,2.25-4.08,9.92,9.92,0,0,1,3.34-2.59,9.42,9.42,0,0,1,4.1-.91,10.33,10.33,0,0,1,5,1.18,9,9,0,0,1,3.58,3.69Zm6.59-21h4.77v40.74h-5.24v5.78h16.54v-5.78h-5V670.3a20.12,20.12,0,0,1,4.16-2.57,10.42,10.42,0,0,1,4.37-1,7.82,7.82,0,0,1,5.84,2.06q2,2.07,2,6.07v15.9h-4.77v5.78H320v-5.78h-5.25V674.07a17.66,17.66,0,0,0-.86-5.84,10.59,10.59,0,0,0-2.43-4.05,10,10,0,0,0-3.84-2.35,15.59,15.59,0,0,0-5-.77,13.5,13.5,0,0,0-3,.33,15.51,15.51,0,0,0-2.79.94,17.39,17.39,0,0,0-2.57,1.43,13.9,13.9,0,0,0-2.17,1.77h-.2V644.22h-11V650Zm65.52,46.52H356.4v-5.78h-3.87l0-17.41a15.58,15.58,0,0,0-.9-5.6,10,10,0,0,0-2.59-3.85,10.5,10.5,0,0,0-4.1-2.23,18.77,18.77,0,0,0-5.45-.73,20.1,20.1,0,0,0-3.34.29,27.8,27.8,0,0,0-3.33.77,23,23,0,0,0-3.11,1.18,22.42,22.42,0,0,0-2.72,1.49l2.05,4.34a10.92,10.92,0,0,1,1.79-1,18.5,18.5,0,0,1,2.32-.8,22.64,22.64,0,0,1,2.71-.58,21,21,0,0,1,3-.21,10,10,0,0,1,3,.43,6.23,6.23,0,0,1,2.33,1.33,6.09,6.09,0,0,1,1.52,2.25,8.92,8.92,0,0,1,.53,3.21l0,2.86a28.35,28.35,0,0,0-3-.42c-1.1-.1-2.45-.15-4.07-.15a23.74,23.74,0,0,0-3.18.22,17.66,17.66,0,0,0-3.26.74,15.53,15.53,0,0,0-3.06,1.38,10.18,10.18,0,0,0-2.55,2.11,10,10,0,0,0-1.75,3,10.87,10.87,0,0,0-.65,3.93,9.31,9.31,0,0,0,.85,3.94,10.16,10.16,0,0,0,2.41,3.24,11.44,11.44,0,0,0,3.68,2.2,13.08,13.08,0,0,0,4.69.81,12.17,12.17,0,0,0,5.46-1.18,18.17,18.17,0,0,0,4.39-3v3.22ZM335,691.9a6.5,6.5,0,0,1-2.2-1,4.67,4.67,0,0,1-1.43-1.72,5.44,5.44,0,0,1-.5-2.4,5.31,5.31,0,0,1,2.3-4.54,8,8,0,0,1,2.59-1.17,12.66,12.66,0,0,1,3.31-.41h7.26l0,7.87a10.12,10.12,0,0,1-1.58,1.43,12.57,12.57,0,0,1-2.05,1.21,12.18,12.18,0,0,1-2.36.82,10.58,10.58,0,0,1-2.48.3,10.4,10.4,0,0,1-2.83-.35Zm48.95,4.62h10.12v-5.78h-3.87l0-17.41a15.58,15.58,0,0,0-.9-5.6,10,10,0,0,0-2.59-3.85,10.5,10.5,0,0,0-4.1-2.23,18.77,18.77,0,0,0-5.45-.73,20.1,20.1,0,0,0-3.34.29,27.8,27.8,0,0,0-3.33.77,23,23,0,0,0-3.11,1.18,22.42,22.42,0,0,0-2.72,1.49l2.05,4.34a10.92,10.92,0,0,1,1.79-1,18.5,18.5,0,0,1,2.32-.8,22.64,22.64,0,0,1,2.71-.58,21,21,0,0,1,3-.21,10,10,0,0,1,3,.43,6.23,6.23,0,0,1,2.33,1.33,6.09,6.09,0,0,1,1.52,2.25,8.7,8.7,0,0,1,.54,3.21l0,2.86a28.35,28.35,0,0,0-3-.42c-1.1-.1-2.45-.15-4.07-.15a23.48,23.48,0,0,0-3.17.22,17.58,17.58,0,0,0-3.27.74,15.19,15.19,0,0,0-3,1.38,9.71,9.71,0,0,0-4.31,5.09,11.09,11.09,0,0,0-.65,3.93,9.31,9.31,0,0,0,.85,3.94,10.16,10.16,0,0,0,2.41,3.24,11.55,11.55,0,0,0,3.68,2.2,13.08,13.08,0,0,0,4.69.81,12.17,12.17,0,0,0,5.46-1.18,18,18,0,0,0,4.39-3v3.22Zm-11.3-4.62a6.5,6.5,0,0,1-2.2-1,4.67,4.67,0,0,1-1.43-1.72,5.44,5.44,0,0,1-.5-2.4,5.31,5.31,0,0,1,2.3-4.54,8,8,0,0,1,2.59-1.17,12.66,12.66,0,0,1,3.31-.41H384l0,7.87a10.12,10.12,0,0,1-1.58,1.43,12.57,12.57,0,0,1-2.05,1.21,12.18,12.18,0,0,1-2.36.82,11,11,0,0,1-5.31-.05Zm27.1-24.42h4.84v39.09h-4.78v5.79h16.54v-5.79h-5.44V695.31a23.47,23.47,0,0,0,3.95,1.43,18.24,18.24,0,0,0,4.72.56,16.82,16.82,0,0,0,6.86-1.38,16,16,0,0,0,5.39-3.85,17.68,17.68,0,0,0,3.55-5.93,22.08,22.08,0,0,0,1.28-7.67,21.58,21.58,0,0,0-1.14-7.18,16.8,16.8,0,0,0-3.21-5.56,14.54,14.54,0,0,0-4.93-3.6,15.24,15.24,0,0,0-6.29-1.27,15,15,0,0,0-5.41,1,19.09,19.09,0,0,0-4.84,2.73V661.7H399.73v5.78Zm23.87-.29A9.87,9.87,0,0,1,427,669.6a11.65,11.65,0,0,1,2.32,3.86,14.94,14.94,0,0,1,.85,5.25,16.47,16.47,0,0,1-.9,5.68,12.78,12.78,0,0,1-2.42,4.12,10.07,10.07,0,0,1-3.5,2.5,10.48,10.48,0,0,1-4.13.84,12.8,12.8,0,0,1-5.17-.91,10,10,0,0,1-3.17-2.05V670a12,12,0,0,1,3.88-2.69,11.52,11.52,0,0,1,4.66-1,10.59,10.59,0,0,1,4.17.82Zm36-15.81h4.84v39.36H459.6v5.78h19A23.85,23.85,0,0,0,496,689a24.57,24.57,0,0,0,3.78-5.19,26.51,26.51,0,0,0,2.4-6.12,27.23,27.23,0,0,0,.84-6.82,26.77,26.77,0,0,0-.84-6.74,25.78,25.78,0,0,0-2.4-6.07A24.45,24.45,0,0,0,496,653a24.71,24.71,0,0,0-4.94-4,24.41,24.41,0,0,0-5.89-2.55,23.74,23.74,0,0,0-6.65-.91h-19v5.82Zm19.36,0a15,15,0,0,1,6.64,1.51A17.25,17.25,0,0,1,491,657a19.83,19.83,0,0,1,3.66,6.2,21.48,21.48,0,0,1,1.35,7.67,22,22,0,0,1-1.35,7.78A20.17,20.17,0,0,1,491,685a17.44,17.44,0,0,1-5.43,4.21,14.6,14.6,0,0,1-6.64,1.55H471V651.38Zm29.58,16.1h5.05v23.26h-5v5.78h16.54v-5.78h-5.24v-29H508.54v5.78Zm4.22-16.41a5,5,0,0,0,.94,1.43,4.25,4.25,0,0,0,3.11,1.33,4.13,4.13,0,0,0,1.67-.35,4.46,4.46,0,0,0,1.38-1,5,5,0,0,0,.94-1.43,4.29,4.29,0,0,0,.35-1.71,4.09,4.09,0,0,0-.35-1.66,4.62,4.62,0,0,0-.94-1.38,4.51,4.51,0,0,0-1.38-.94,4,4,0,0,0-1.67-.36,4.16,4.16,0,0,0-1.71.36,4.37,4.37,0,0,0-1.4.94,4.62,4.62,0,0,0-.94,1.38,4.09,4.09,0,0,0-.35,1.66,4.29,4.29,0,0,0,.35,1.71Zm49.13,28.85c0-.83,0-1.68,0-2.56a24.9,24.9,0,0,0-.22-2.59,26.24,26.24,0,0,0-1.19-5.14,13.67,13.67,0,0,0-2.52-4.49,12.06,12.06,0,0,0-4.3-3.16,16.06,16.06,0,0,0-6.58-1.19,16.55,16.55,0,0,0-7.12,1.44,14.94,14.94,0,0,0-5.13,3.92,16.86,16.86,0,0,0-3.11,5.78,23.53,23.53,0,0,0-1,7.05,24,24,0,0,0,1.23,8.06,16.33,16.33,0,0,0,3.39,5.79,14,14,0,0,0,5.18,3.49A17.64,17.64,0,0,0,547,697.5a22.55,22.55,0,0,0,7.19-1.15,27.12,27.12,0,0,0,6.89-3.49l-2.52-4.27a25,25,0,0,1-5.39,2.37,18.86,18.86,0,0,1-5.3.76,11.55,11.55,0,0,1-6.2-1.7,9.6,9.6,0,0,1-4-5.06,14.35,14.35,0,0,1-.63-2.34,16.09,16.09,0,0,1-.21-2.7ZM550.5,666.71a6.7,6.7,0,0,1,2.59,1.88,7.8,7.8,0,0,1,1.49,2.86,16.28,16.28,0,0,1,.62,3.59H537.15a17.31,17.31,0,0,1,1-3.76,8.69,8.69,0,0,1,1.83-2.84,7.7,7.7,0,0,1,2.77-1.79,10.81,10.81,0,0,1,3.82-.62,10,10,0,0,1,3.9.68Zm42.82,29.81H609.6v-5.78h-4.85V674.07a17.94,17.94,0,0,0-.85-5.84,10.61,10.61,0,0,0-2.44-4.05,9.92,9.92,0,0,0-3.83-2.35,15.59,15.59,0,0,0-5-.77,12.94,12.94,0,0,0-3.15.37,15,15,0,0,0-2.87,1,17.3,17.3,0,0,0-2.64,1.51,25.84,25.84,0,0,0-2.37,1.85h-.07v-4.1H570.4v5.78h4.84v23.26H570.4v5.78h16.27v-5.78h-4.91v-20.4a21.81,21.81,0,0,1,4.2-2.59,10.23,10.23,0,0,1,4.41-1,7.81,7.81,0,0,1,5.83,2.06q2,2.07,2,6.07v15.9h-4.91v5.78ZM636.42,671h6.89v-5.78h-3.26a11.38,11.38,0,0,0-4.54-3.56,16.29,16.29,0,0,0-6.25-1.05,15.64,15.64,0,0,0-5.14.78,11.21,11.21,0,0,0-3.82,2.13,9,9,0,0,0-2.38,3.25,10.08,10.08,0,0,0-.83,4.1,8.16,8.16,0,0,0,2,5.59,14.18,14.18,0,0,0,6,3.69l6.66,2.48a9.5,9.5,0,0,1,3.71,2.12,4.06,4.06,0,0,1,1.1,2.86,3.68,3.68,0,0,1-.54,2,5.08,5.08,0,0,1-1.46,1.5,7.06,7.06,0,0,1-2.14.94,10,10,0,0,1-2.52.32,11.62,11.62,0,0,1-2.64-.3,7.75,7.75,0,0,1-2.32-1,5,5,0,0,1-1.65-1.66,4.72,4.72,0,0,1-.62-2.47h-7v5.78h3.5a9.86,9.86,0,0,0,3.93,3.46,14.45,14.45,0,0,0,6.63,1.32,17.74,17.74,0,0,0,5.31-.76,12.52,12.52,0,0,0,4.08-2.12,9.28,9.28,0,0,0,2.62-3.29,9.7,9.7,0,0,0,.93-4.26,9.23,9.23,0,0,0-2-5.95,13.15,13.15,0,0,0-6.28-3.93l-6.69-2.35a10,10,0,0,1-3.55-1.9,3.72,3.72,0,0,1-1.06-2.78,3.66,3.66,0,0,1,.46-1.83,4.07,4.07,0,0,1,1.26-1.39,6.13,6.13,0,0,1,1.93-.88,9.55,9.55,0,0,1,2.47-.3,11.41,11.41,0,0,1,2.49.29,8,8,0,0,1,2.32.9,5.37,5.37,0,0,1,1.7,1.62,4.3,4.3,0,0,1,.65,2.4Zm23.36-20.57-6.11,2.89v8.34h-5.62v5.07h5.55l-.1,19.16a22.38,22.38,0,0,0,.57,5.5,8.37,8.37,0,0,0,1.73,3.51,6.36,6.36,0,0,0,2.86,1.87,12.84,12.84,0,0,0,4,.55,16.18,16.18,0,0,0,4.2-.48,17.52,17.52,0,0,0,3.4-1.33l-1.45-4.2a11.46,11.46,0,0,1-2.35.85,10.88,10.88,0,0,1-2.49.26,5.55,5.55,0,0,1-2.35-.49,2.93,2.93,0,0,1-1.51-1.77,9.62,9.62,0,0,1-.47-3.32l.1-20.11H668V661.7h-8.17V650.47Zm12.85,17h2.75l11.36,29.58h6.19l11.4-29.58h3V661.7h-11v5.78h2.12l-8.4,24-8.61-24h3.26V661.7h-12v5.78Zm70.66,12.44c0-.83,0-1.68,0-2.56s-.11-1.73-.22-2.59a27,27,0,0,0-1.19-5.14,13.88,13.88,0,0,0-2.53-4.49A12.06,12.06,0,0,0,735,662a16,16,0,0,0-6.57-1.19,16.59,16.59,0,0,0-7.13,1.44,14.81,14.81,0,0,0-5.12,3.92,16.7,16.7,0,0,0-3.11,5.78A23.21,23.21,0,0,0,712,679a24,24,0,0,0,1.23,8.06,16.34,16.34,0,0,0,3.4,5.79,13.93,13.93,0,0,0,5.17,3.49,17.72,17.72,0,0,0,6.54,1.18,22.61,22.61,0,0,0,7.2-1.15,27.45,27.45,0,0,0,6.89-3.49l-2.52-4.27a25.08,25.08,0,0,1-5.4,2.37,18.79,18.79,0,0,1-5.29.76A11.58,11.58,0,0,1,723,690a9.7,9.7,0,0,1-4-5.06,13.39,13.39,0,0,1-.62-2.34,15.06,15.06,0,0,1-.22-2.7Zm-11.4-13.21a6.56,6.56,0,0,1,2.59,1.88,8,8,0,0,1,1.5,2.86,16.89,16.89,0,0,1,.62,3.59H718.55a16.77,16.77,0,0,1,1-3.76,8.69,8.69,0,0,1,1.83-2.84,7.74,7.74,0,0,1,2.78-1.79A10.75,10.75,0,0,1,728,666a9.91,9.91,0,0,1,3.9.68Zm45-5.22c-1,0-2.07-.06-3.1-.06h-3.29a7.7,7.7,0,0,0-2.44.38,7.58,7.58,0,0,0-2,1.08,10.2,10.2,0,0,0-1.68,1.61,14.65,14.65,0,0,0-1.36,2v-4.8H751.79v5.78h4.84l0,23.26h-4.81v5.78h17.28v-5.78h-5.91V673.93a9.77,9.77,0,0,1,1.09-3.14A8.1,8.1,0,0,1,766,668.6a7.06,7.06,0,0,1,2.17-1.27,6.63,6.63,0,0,1,2.27-.42v2.15h6.39v-7.57Zm7-11.49h5v40.74h-5v5.78h16.54v-5.78h-5.25V644.22H783.8V650Zm53.65,29.92c0-.83,0-1.68-.05-2.56s-.11-1.73-.22-2.59a27,27,0,0,0-1.19-5.14,13.88,13.88,0,0,0-2.53-4.49,12.06,12.06,0,0,0-4.3-3.16,16,16,0,0,0-6.57-1.19,16.59,16.59,0,0,0-7.13,1.44,14.81,14.81,0,0,0-5.12,3.92,16.7,16.7,0,0,0-3.11,5.78,23.21,23.21,0,0,0-1.05,7.05,24,24,0,0,0,1.23,8.06,16.34,16.34,0,0,0,3.4,5.79,13.93,13.93,0,0,0,5.17,3.49,17.72,17.72,0,0,0,6.54,1.18,22.61,22.61,0,0,0,7.2-1.15,27.45,27.45,0,0,0,6.89-3.49l-2.52-4.27a25.29,25.29,0,0,1-5.4,2.37,18.79,18.79,0,0,1-5.29.76,11.58,11.58,0,0,1-6.21-1.7,9.7,9.7,0,0,1-4-5.06,13.39,13.39,0,0,1-.62-2.34,15.06,15.06,0,0,1-.22-2.7Zm-11.4-13.21a6.63,6.63,0,0,1,2.59,1.88,8,8,0,0,1,1.5,2.86,16.89,16.89,0,0,1,.62,3.59h-18a16.77,16.77,0,0,1,1-3.76,8.69,8.69,0,0,1,1.83-2.84,7.66,7.66,0,0,1,2.78-1.79,10.71,10.71,0,0,1,3.81-.62,9.91,9.91,0,0,1,3.9.68Zm42.83,29.81h16.27v-5.78h-4.84V674.07a17.92,17.92,0,0,0-.86-5.84,10.48,10.48,0,0,0-2.44-4.05,9.92,9.92,0,0,0-3.83-2.35,15.59,15.59,0,0,0-5-.77,12.8,12.8,0,0,0-3.14.37,15.13,15.13,0,0,0-2.88,1,17.3,17.3,0,0,0-2.64,1.51,25.84,25.84,0,0,0-2.37,1.85h-.06v-4.1H846v5.78h4.84v23.26H846v5.78h16.27v-5.78h-4.91v-20.4a22.19,22.19,0,0,1,4.21-2.59,10.19,10.19,0,0,1,4.4-1,7.8,7.8,0,0,1,5.83,2.06q2,2.07,2,6.07v15.9h-4.91v5.78Zm22.72-29h5v23.26h-5v5.78h16.54v-5.78H903v-29H891.6v5.78Zm4.22-16.41a5,5,0,0,0,.94,1.43,4.25,4.25,0,0,0,3.11,1.33,4.13,4.13,0,0,0,1.67-.35,4.46,4.46,0,0,0,1.38-1,5,5,0,0,0,.94-1.43,4.29,4.29,0,0,0,.35-1.71,4.09,4.09,0,0,0-.35-1.66,4.62,4.62,0,0,0-.94-1.38,4.51,4.51,0,0,0-1.38-.94,4,4,0,0,0-1.67-.36,4.16,4.16,0,0,0-1.71.36,4.37,4.37,0,0,0-1.4.94,4.62,4.62,0,0,0-.94,1.38,4.09,4.09,0,0,0-.35,1.66,4.29,4.29,0,0,0,.35,1.71Zm41.07,45.45h16.27v-5.78h-4.85V674.07a17.94,17.94,0,0,0-.85-5.84,10.61,10.61,0,0,0-2.44-4.05,9.92,9.92,0,0,0-3.83-2.35,15.59,15.59,0,0,0-5-.77,12.94,12.94,0,0,0-3.15.37,15,15,0,0,0-2.87,1,17.3,17.3,0,0,0-2.64,1.51,25.84,25.84,0,0,0-2.37,1.85h-.07v-4.1H914v5.78h4.84v23.26H914v5.78h16.27v-5.78h-4.91v-20.4a21.81,21.81,0,0,1,4.2-2.59,10.23,10.23,0,0,1,4.41-1,7.81,7.81,0,0,1,5.83,2.06q2,2.07,2,6.07v15.9h-4.9v5.78Z" transform="translate(-32.23 -311.5)"/><path class="cls-6" d="M986,694a23.52,23.52,0,0,1-.61,5.88,8.6,8.6,0,0,1-1.83,3.68,6.5,6.5,0,0,1-3.12,1.9,16.58,16.58,0,0,1-4.49.54,16.83,16.83,0,0,1-3.16-.3,21.87,21.87,0,0,1-3.06-.83,15.51,15.51,0,0,1-2.77-1.26,14.51,14.51,0,0,1-2.31-1.61L961.27,707a16.17,16.17,0,0,0,3.38,2.22,23.87,23.87,0,0,0,3.77,1.5,25,25,0,0,0,3.91.86,28.18,28.18,0,0,0,3.8.27q8.26,0,12.19-4.24t3.91-12.51V661.7H986v1.78a12.8,12.8,0,0,0-4.08-2,17.71,17.71,0,0,0-4.73-.58,18.13,18.13,0,0,0-7,1.29,15.34,15.34,0,0,0-5.34,3.63,16.16,16.16,0,0,0-3.43,5.65,21.17,21.17,0,0,0-1.21,7.34,22.92,22.92,0,0,0,1.26,7.89,16.77,16.77,0,0,0,3.5,5.81,14.83,14.83,0,0,0,5.27,3.6,17.39,17.39,0,0,0,6.58,1.23,12.67,12.67,0,0,0,5.16-1,12.27,12.27,0,0,0,4-2.83V694Zm-12.74-3a9.24,9.24,0,0,1-3.46-2.5,11.84,11.84,0,0,1-2.26-4.12,18.46,18.46,0,0,1-.8-5.68,15.18,15.18,0,0,1,.84-5.25,11.45,11.45,0,0,1,2.3-3.86,9.78,9.78,0,0,1,3.41-2.41,10.59,10.59,0,0,1,4.17-.82A15.79,15.79,0,0,1,982,667a10.43,10.43,0,0,1,4,2.19v19.06a9,9,0,0,1-3.19,2.47,11.92,11.92,0,0,1-5.15,1.09,11.31,11.31,0,0,1-4.4-.84Z" transform="translate(-32.23 -311.5)"/></svg>